<svg xmlns="http://www.w3.org/2000/svg" x="0px" y="0px"
width="24" height="24"
viewBox="0 0 172 172"
style=" fill:#000000;"><g fill="none" fill-rule="nonzero" stroke="none" stroke-width="1" stroke-linecap="butt" stroke-linejoin="miter" stroke-miterlimit="10" stroke-dasharray="" stroke-dashoffset="0" font-family="none" font-weight="none" font-size="none" text-anchor="none" style="mix-blend-mode: normal"><path d="M0,172v-172h172v172z" fill="none"></path><g fill="#8d989c"><path d="M86,57.33333l15.7595,15.7595c3.56183,3.56183 8.729,4.988 13.6095,3.76967l39.59583,-9.89717c4.80883,-1.204 6.97317,-6.80117 4.22833,-10.92917l-8.69317,-13.03617z" opacity="0.35"></path><path d="M108.56783,74.97767v0c-4.45767,-1.23267 -8.52833,-3.60483 -11.79633,-6.88l-10.7715,-10.76433v89.2895c7.654,0 15.308,-1.2255 22.661,-3.6765l32.035,-10.67833c5.85517,-1.94933 9.804,-7.43183 9.804,-13.60233v-50.58233l-28.2725,7.06633c-4.4935,1.12517 -9.202,1.06783 -13.65967,-0.172z"></path><path d="M63.339,142.94633l-27.133,-9.04433c-8.78633,-2.93117 -14.706,-11.14417 -14.706,-20.39633v-49.00567l64.5,-7.16667v89.2895c-7.654,0 -15.308,-1.2255 -22.661,-3.6765z" opacity="0.35"></path><path d="M86.774,30.25767c-5.21017,-1.03917 -10.5565,-0.91733 -15.70933,0.37267c-15.65917,3.92017 -49.56467,12.36967 -49.56467,12.36967l-8.52833,12.79967c-2.795,4.18533 -0.50883,9.87567 4.4075,10.97217l44.70567,9.933c5.77633,1.28283 11.75333,-1.118 15.03567,-6.0415l8.8795,-13.33l64.5,-14.33333z"></path></g></g></svg>