<svg xmlns="http://www.w3.org/2000/svg" x="0px" y="0px"
width="24" height="24"
viewBox="0 0 172 172"
style=" fill:#000000;"><g fill="none" fill-rule="nonzero" stroke="none" stroke-width="1" stroke-linecap="butt" stroke-linejoin="miter" stroke-miterlimit="10" stroke-dasharray="" stroke-dashoffset="0" font-family="none" font-weight="none" font-size="none" text-anchor="none" style="mix-blend-mode: normal"><path d="M0,172v-172h172v172z" fill="none"></path><g fill="#ffffff"><path d="M121.83333,157.66667h-71.66667c-11.87517,0 -21.5,-9.62483 -21.5,-21.5v-100.33333c0,-11.87517 9.62483,-21.5 21.5,-21.5h71.66667c11.87517,0 21.5,9.62483 21.5,21.5v100.33333c0,11.87517 -9.62483,21.5 -21.5,21.5z" opacity="0.35"></path><path d="M78.83333,71.66667h-50.16667c-7.91917,0 -14.33333,6.41417 -14.33333,14.33333c0,7.91917 6.41417,14.33333 14.33333,14.33333h50.16667z"></path><path d="M71.66667,109.68583c0,4.42183 5.332,6.6435 8.471,3.53317l22.317,-22.10917c2.838,-2.8165 2.838,-7.40317 0,-10.21967l-22.317,-22.10917c-3.139,-3.11033 -8.471,-0.8815 -8.471,3.53317z"></path></g></g></svg>