<svg xmlns="http://www.w3.org/2000/svg" x="0px" y="0px"
width="24" height="24"
viewBox="0 0 172 172"
style=" fill:#000000;"><g fill="none" fill-rule="nonzero" stroke="none" stroke-width="1" stroke-linecap="butt" stroke-linejoin="miter" stroke-miterlimit="10" stroke-dasharray="" stroke-dashoffset="0" font-family="none" font-weight="none" font-size="none" text-anchor="none" style="mix-blend-mode: normal"><path d="M0,172v-172h172v172z" fill="none"></path><g fill="#6b57dc"><path d="M129,150.5h-86c-11.87517,0 -21.5,-9.62483 -21.5,-21.5v-86c0,-11.87517 9.62483,-21.5 21.5,-21.5h86c11.87517,0 21.5,9.62483 21.5,21.5v86c0,11.87517 -9.62483,21.5 -21.5,21.5z" opacity="0.35"></path><path d="M90.4505,150.5v-49.88717h-16.7915v-19.52917h16.7915v-14.36917c0,-16.65533 10.18383,-25.7355 25.0475,-25.7355c5.0095,-0.01433 10.01183,0.24367 14.99267,0.7525v17.415h-10.234c-8.09833,0 -9.675,3.827 -9.675,9.47433v12.43417h19.35l-2.5155,19.52917h-16.94917v49.91583z"></path></g></g></svg>