<svg xmlns="http://www.w3.org/2000/svg" x="0px" y="0px"
width="24" height="24"
viewBox="0 0 172 172"
style=" fill:#000000;"><g fill="none" fill-rule="nonzero" stroke="none" stroke-width="1" stroke-linecap="butt" stroke-linejoin="miter" stroke-miterlimit="10" stroke-dasharray="" stroke-dashoffset="0" font-family="none" font-weight="none" font-size="none" text-anchor="none" style="mix-blend-mode: normal"><path d="M0,172v-172h172v172z" fill="none"></path><g fill="#6b57dc"><path d="M129,150.5h-86c-11.87517,0 -21.5,-9.62483 -21.5,-21.5v-86c0,-11.87517 9.62483,-21.5 21.5,-21.5h86c11.87517,0 21.5,9.62483 21.5,21.5v86c0,11.87517 -9.62483,21.5 -21.5,21.5z" opacity="0.35"></path><path d="M134.375,79.55h-6.45v-6.45c0,-3.56183 -2.88817,-6.45 -6.45,-6.45c-3.56183,0 -6.45,2.88817 -6.45,6.45v6.45h-6.45c-3.56183,0 -6.45,2.88817 -6.45,6.45c0,3.56183 2.88817,6.45 6.45,6.45h6.45v6.45c0,3.56183 2.88817,6.45 6.45,6.45c3.56183,0 6.45,-2.88817 6.45,-6.45v-6.45h6.45c3.56183,0 6.45,-2.88817 6.45,-6.45c0,-3.56183 -2.88817,-6.45 -6.45,-6.45z"></path><path d="M63.425,118.25c-17.7805,0 -32.25,-14.4695 -32.25,-32.25c0,-17.7805 14.4695,-32.25 32.25,-32.25c5.375,0 10.69983,1.3545 15.394,3.90583c3.13183,1.70567 4.28567,5.61867 2.58,8.7505c-1.71283,3.13183 -5.633,4.27133 -8.7505,2.58c-2.80933,-1.5265 -5.9985,-2.33633 -9.2235,-2.33633c-10.67117,0 -19.35,8.67883 -19.35,19.35c0,10.67117 8.67883,19.35 19.35,19.35c8.4065,0 15.58033,-5.38933 18.24633,-12.9h-11.79633c-3.56183,0 -6.45,-2.88817 -6.45,-6.45c0,-3.56183 2.88817,-6.45 6.45,-6.45h19.35c3.56183,0 6.45,2.88817 6.45,6.45c0,17.7805 -14.4695,32.25 -32.25,32.25z"></path></g></g></svg>