<svg xmlns="http://www.w3.org/2000/svg" x="0px" y="0px"
width="24" height="24"
viewBox="0 0 172 172"
style=" fill:#000000;"><g fill="none" fill-rule="nonzero" stroke="none" stroke-width="1" stroke-linecap="butt" stroke-linejoin="miter" stroke-miterlimit="10" stroke-dasharray="" stroke-dashoffset="0" font-family="none" font-weight="none" font-size="none" text-anchor="none" style="mix-blend-mode: normal"><path d="M0,172v-172h172v172z" fill="none"></path><g fill="#6b57dc"><path d="M111.08333,93.16667h-50.16667c-13.85317,0 -25.08333,11.23017 -25.08333,25.08333c0,13.85317 11.23017,25.08333 25.08333,25.08333h50.16667c13.85317,0 25.08333,-11.23017 25.08333,-25.08333c0,-13.85317 -11.23017,-25.08333 -25.08333,-25.08333z"></path><path d="M146.91667,107.5h-121.83333c-9.89717,0 -17.91667,8.0195 -17.91667,17.91667c0,9.89717 8.0195,17.91667 17.91667,17.91667h121.83333c9.89717,0 17.91667,-8.0195 17.91667,-17.91667c0,-9.89717 -8.0195,-17.91667 -17.91667,-17.91667z"></path><circle cx="12" cy="7" transform="scale(7.16667,7.16667)" r="4" opacity="0.35"></circle><circle cx="20" cy="9" transform="scale(7.16667,7.16667)" r="3" opacity="0.35"></circle><circle cx="4" cy="9" transform="scale(7.16667,7.16667)" r="3" opacity="0.35"></circle></g></g></svg>