<svg xmlns="http://www.w3.org/2000/svg" x="0px" y="0px"
width="24" height="24"
viewBox="0 0 172 172"
style=" fill:#000000;"><g fill="none" fill-rule="nonzero" stroke="none" stroke-width="1" stroke-linecap="butt" stroke-linejoin="miter" stroke-miterlimit="10" stroke-dasharray="" stroke-dashoffset="0" font-family="none" font-weight="none" font-size="none" text-anchor="none" style="mix-blend-mode: normal"><path d="M0,172v-172h172v172z" fill="none"></path><g fill="#6b57dc"><path d="M143.33333,43h-114.66667c-7.91917,0 -14.33333,6.41417 -14.33333,14.33333v43c0,7.91917 6.41417,14.33333 14.33333,14.33333h114.66667c7.91917,0 14.33333,-6.41417 14.33333,-14.33333v-43c0,-7.91917 -6.41417,-14.33333 -14.33333,-14.33333z" opacity="0.35"></path><circle cx="12" cy="11" transform="scale(7.16667,7.16667)" r="3"></circle><circle cx="18" cy="11" transform="scale(7.16667,7.16667)" r="1"></circle><circle cx="6" cy="11" transform="scale(7.16667,7.16667)" r="1"></circle><path d="M35.7115,114.66667v22.71117c0,11.87517 9.62483,21.5 21.5,21.5h63.41067c5.3105,0 10.43467,-1.96367 14.3835,-5.51833l19.5435,-17.59417l16.35433,-2.71617c7.36733,-1.2255 10.49917,-9.9975 5.676,-15.70217c-3.90583,-4.61533 -9.70367,-8.63583 -18.05283,-8.63583c-12.65633,0 -29.64133,5.9555 -29.64133,5.9555z"></path><path d="M129,43c0,-5.29617 0,-11.57417 0,-14.33333c0,-7.91917 -6.41417,-14.33333 -14.33333,-14.33333c-2.97417,0 -5.73333,0.903 -8.02667,2.45817c-1.94933,-5.59 -7.21683,-9.62483 -13.47333,-9.62483c-6.2565,0 -11.524,4.03483 -13.47333,9.62483c-2.29333,-1.55517 -5.0525,-2.45817 -8.02667,-2.45817c-7.91917,0 -14.33333,6.41417 -14.33333,14.33333c0,1.0105 0,2.5155 0,4.24983c-2.25033,-2.58717 -5.5255,-4.24983 -9.21633,-4.24983c-6.78683,0 -12.28367,5.49683 -12.28367,12.28367c0,0.53033 0,1.25417 0,2.04967z"></path></g></g></svg>