<svg xmlns="http://www.w3.org/2000/svg" x="0px" y="0px"
width="24" height="24"
viewBox="0 0 172 172"
style=" fill:#000000;"><g fill="none" fill-rule="nonzero" stroke="none" stroke-width="1" stroke-linecap="butt" stroke-linejoin="miter" stroke-miterlimit="10" stroke-dasharray="" stroke-dashoffset="0" font-family="none" font-weight="none" font-size="none" text-anchor="none" style="mix-blend-mode: normal"><path d="M0,172v-172h172v172z" fill="none"></path><g fill="#ffffff"><path d="M129,150.5h-86c-11.87517,0 -21.5,-9.62483 -21.5,-21.5v-57.33333c0,-11.87517 9.62483,-21.5 21.5,-21.5h86c11.87517,0 21.5,9.62483 21.5,21.5v57.33333c0,11.87517 -9.62483,21.5 -21.5,21.5z" opacity="0.35"></path><path d="M57.33333,50.16667c0,-15.83117 12.8355,-28.66667 28.66667,-28.66667c15.83117,0 28.66667,12.8355 28.66667,28.66667h14.33333c0,-23.75033 -19.24967,-43 -43,-43c-23.75033,0 -43,19.24967 -43,43z"></path><path d="M85.34783,111.37717h-0.03583c-3.74817,0 -6.6435,-3.38983 -6.00567,-7.08783c1.9565,-11.27317 10.73567,-11.66017 10.73567,-18.662c0,-1.94217 -0.33683,-6.29233 -5.01667,-6.29233c-2.52983,0 -4.0205,1.61967 -4.88767,3.33967c-1.16817,2.32917 -3.87,3.483 -6.43567,3.0315v0c-3.89867,-0.688 -6.29233,-4.86617 -4.63683,-8.46383c2.365,-5.13133 7.2025,-10.50633 16.77717,-10.50633c15.5445,0 17.63,12.169 17.63,17.89517c0,13.53067 -10.07633,14.03233 -12.16183,21.82967c-0.7525,2.80933 -3.053,4.91633 -5.96267,4.91633zM93.4175,125.71767c0,2.30767 -0.71667,4.24983 -2.14283,5.84083c-1.43333,1.57667 -3.311,2.37217 -5.61867,2.37217c-2.31483,0 -4.1925,-0.7955 -5.61867,-2.37217c-1.42617,-1.58383 -2.15,-3.53317 -2.15,-5.84083c0,-2.2575 0.72383,-4.19967 2.15,-5.848c1.42617,-1.64117 3.29667,-2.45817 5.61867,-2.45817c2.30767,0 4.18533,0.817 5.61867,2.45817c1.43333,1.64833 2.14283,3.5905 2.14283,5.848z"></path></g></g></svg>