<svg xmlns="http://www.w3.org/2000/svg" x="0px" y="0px"
width="24" height="24"
viewBox="0 0 172 172"
style=" fill:#000000;"><g fill="none" fill-rule="none" stroke="none" stroke-width="1" stroke-linecap="butt" stroke-linejoin="miter" stroke-miterlimit="10" stroke-dasharray="" stroke-dashoffset="0" font-family="none" font-weight="none" font-size="none" text-anchor="none" style="mix-blend-mode: normal"><path d="M0,172v-172h172v172z" fill="none" fill-rule="nonzero"></path><g fill="#6b57dc"><rect x="4" y="4" transform="scale(7.16667,7.16667)" width="16" height="18" rx="3" ry="0" fill-rule="nonzero" opacity="0.35"></rect><path d="M113.73328,107.5c-3.36254,0.08959 -6.24028,2.43881 -7.00119,5.71534c-2.5738,9.32583 -11.05762,15.7854 -20.73209,15.7854c-9.67447,0 -18.1583,-6.45958 -20.73209,-15.7854c-0.76091,-3.27654 -3.63865,-5.62575 -7.00119,-5.71534h-29.60005c-3.95804,0 -7.16667,3.20863 -7.16667,7.16667v35.83333c0,3.95804 3.20863,7.16667 7.16667,7.16667h114.66667c3.95804,0 7.16667,-3.20863 7.16667,-7.16667v-35.83333c0,-3.95804 -3.20863,-7.16667 -7.16667,-7.16667z" fill-rule="evenodd"></path><path d="M50.16667,28.66667h71.66667c5.22622,0.01586 10.26468,1.9502 14.15883,5.43577c-0.86657,-11.14208 -10.14978,-19.74778 -21.32549,-19.76911h-57.33333c-11.17571,0.02133 -20.45892,8.62702 -21.32549,19.76911c3.89414,-3.48558 8.93261,-5.41991 14.15883,-5.43577z" fill-rule="nonzero"></path></g></g></svg>